<svg viewBox="0 0 82 82" fill="none" xmlns="http://www.w3.org/2000/svg"><circle cx="41" cy="41" r="40" fill="#F8F8F8"></circle><circle cx="41" cy="41" r="40.5" stroke="#4A4A4A" stroke-opacity="0.5" stroke-dasharray="6 6"></circle><path d="M32.222 46.28h4.96c.17.555.426 1.035.768 1.44.79.96 1.973 1.44 3.552 1.44 1.322 0 2.346-.299 3.072-.896.725-.597 1.088-1.365 1.088-2.304 0-.981-.33-1.76-.992-2.336-.64-.576-1.59-.864-2.848-.864h-5.44v-3.52l5.92-4v-.16h-8.96V30.6h15.84v4.48l-5.92 3.68-.32.128v.192h.8c1.92 0 3.541.672 4.864 2.016 1.344 1.323 2.016 2.944 2.016 4.864 0 2.155-.843 3.979-2.528 5.472-1.664 1.472-3.861 2.208-6.592 2.208-3.541 0-6.134-1.227-7.776-3.68-.747-1.067-1.248-2.293-1.504-3.68Z" fill="#0057FF"></path></svg>