<svg viewBox="0 0 82 82" fill="none" xmlns="http://www.w3.org/2000/svg"><circle cx="41" cy="41" r="40" fill="#F8F8F8"></circle><circle cx="41" cy="41" r="40.5" stroke="#4A4A4A" stroke-opacity="0.5" stroke-dasharray="6 6"></circle><path d="M32.198 53v-4.48l7.52-4.96c1.792-1.195 3.04-2.208 3.744-3.04.704-.853 1.056-1.813 1.056-2.88 0-.981-.31-1.76-.928-2.336-.619-.576-1.483-.864-2.592-.864-1.472 0-2.57.533-3.296 1.6a4.818 4.818 0 0 0-.672 1.6h-4.992a9.91 9.91 0 0 1 1.408-3.84c1.622-2.56 4.139-3.84 7.552-3.84 2.582 0 4.662.725 6.24 2.176 1.6 1.43 2.4 3.21 2.4 5.344 0 1.323-.245 2.485-.736 3.488a8.456 8.456 0 0 1-1.92 2.592c-.79.725-1.952 1.61-3.488 2.656l-2.496 1.664-1.6.64v.16l2.08-.16h8.16V53h-17.44Z" fill="#0057FF"></path></svg>